<svg
            width="24"
            height="24"
            viewBox="0 0 24 24"
            xmlns="http://www.w3.org/2000/svg"
            xmlns:xlink="http://www.w3.org/1999/xlink"
          >
            <rect
              width="24"
              height="24"
              stroke="none"
      fill="#ffffff"
              opacity="0"
            />

            <g transform="matrix(0.75 0 0 0.75 12 12)">
              <path
                style="stroke: none; stroke-width: 1; stroke-dasharray: none; stroke-linecap: butt; stroke-dashoffset: 0; stroke-linejoin: miter; stroke-miterlimit: 4; fill: rgb(0,0,0); fill-rule: nonzero; opacity: 1;"
                transform=" translate(-16, -16.38)"
                d="M 16 3 C 11.041484 3 7 7.0414839 7 12 C 7 13.406296 7.5600246 15.003996 8.3339844 16.765625 C 9.1079442 18.527254 10.123137 20.414283 11.134766 22.158203 C 13.158022 25.646044 15.177734 28.568359 15.177734 28.568359 L 16 29.759766 L 16.822266 28.568359 C 16.822266 28.568359 18.841978 25.646044 20.865234 22.158203 C 21.876863 20.414283 22.892056 18.527254 23.666016 16.765625 C 24.439975 15.003996 25 13.406296 25 12 C 25 7.0414839 20.958516 3 16 3 z M 16 5 C 19.877484 5 23 8.1225161 23 12 C 23 12.802704 22.560025 14.308378 21.833984 15.960938 C 21.107944 17.613495 20.123137 19.450467 19.134766 21.154297 C 17.568846 23.853746 16.584375 25.261998 16 26.126953 C 15.415625 25.261998 14.431154 23.853746 12.865234 21.154297 C 11.876863 19.450467 10.892056 17.613495 10.166016 15.960938 C 9.439975 14.308378 9 12.802704 9 12 C 9 8.1225161 12.122516 5 16 5 z M 13 9 L 13 11 L 15 11 L 15 9 L 13 9 z M 15 11 L 15 13 L 17 13 L 17 11 L 15 11 z M 17 11 L 19 11 L 19 9 L 17 9 L 17 11 z M 19 11 L 19 13 L 21 13 L 21 11 L 19 11 z M 13 11 L 11 11 L 11 13 L 13 13 L 13 11 z"
                strokeLinecap="round"
              />
            </g>
          </svg>